<svg width="41" height="28" viewBox="0 0 41 28" fill="none" xmlns="http://www.w3.org/2000/svg">
<path d="M9.30668 0C5.82168 0 2.9432 2.38 2.51926 5.44444H3.28V5.44596C3.28328 5.44596 3.28633 5.44444 3.28961 5.44444C3.44787 5.44444 3.59409 5.45093 3.75727 5.46571C6.24761 5.69127 8.2 7.79013 8.2 10.2448V13.2222H32.8V10.2448C32.8 7.79013 34.7524 5.69127 37.2427 5.46571C37.4067 5.45093 37.5425 5.44444 37.7008 5.44444H37.7248H38.4807C38.0568 2.38 35.1783 0 31.6933 0H9.30668ZM10.66 3.11111C11.1126 3.11111 11.48 3.45956 11.48 3.88889C11.48 4.31822 11.1126 4.66667 10.66 4.66667C10.2074 4.66667 9.84 4.31822 9.84 3.88889C9.84 3.45956 10.2074 3.11111 10.66 3.11111ZM17.22 3.11111C17.6726 3.11111 18.04 3.45956 18.04 3.88889C18.04 4.31822 17.6726 4.66667 17.22 4.66667C16.7674 4.66667 16.4 4.31822 16.4 3.88889C16.4 3.45956 16.7674 3.11111 17.22 3.11111ZM23.78 3.11111C24.2326 3.11111 24.6 3.45956 24.6 3.88889C24.6 4.31822 24.2326 4.66667 23.78 4.66667C23.3274 4.66667 22.96 4.31822 22.96 3.88889C22.96 3.45956 23.3274 3.11111 23.78 3.11111ZM30.34 3.11111C30.7926 3.11111 31.16 3.45956 31.16 3.88889C31.16 4.31822 30.7926 4.66667 30.34 4.66667C29.8874 4.66667 29.52 4.31822 29.52 3.88889C29.52 3.45956 29.8874 3.11111 30.34 3.11111ZM13.94 6.22222C14.3926 6.22222 14.76 6.57067 14.76 7C14.76 7.42933 14.3926 7.77778 13.94 7.77778C13.4874 7.77778 13.12 7.42933 13.12 7C13.12 6.57067 13.4874 6.22222 13.94 6.22222ZM20.5 6.22222C20.9526 6.22222 21.32 6.57067 21.32 7C21.32 7.42933 20.9526 7.77778 20.5 7.77778C20.0474 7.77778 19.68 7.42933 19.68 7C19.68 6.57067 20.0474 6.22222 20.5 6.22222ZM27.06 6.22222C27.5126 6.22222 27.88 6.57067 27.88 7C27.88 7.42933 27.5126 7.77778 27.06 7.77778C26.6074 7.77778 26.24 7.42933 26.24 7C26.24 6.57067 26.6074 6.22222 27.06 6.22222ZM3.28 7C1.47272 7.00467 0 8.39611 0 10.1111C0 11.5593 1.04796 12.7652 2.46 13.1128V19.4444C2.46 22.4513 5.02988 24.8889 8.2 24.8889H32.8C35.9701 24.8889 38.54 22.4513 38.54 19.4444V13.1128C39.952 12.7652 41 11.5593 41 10.1111C41 8.39922 39.5224 7.01011 37.72 7C37.6077 6.99922 37.5129 7.0043 37.3981 7.01519C35.6925 7.16919 34.44 8.62001 34.44 10.2448V18.6667C34.44 19.5261 33.7061 20.2222 32.8 20.2222H8.2C7.2939 20.2222 6.56 19.5261 6.56 18.6667V10.2448C6.56 8.62001 5.30751 7.16919 3.60191 7.01519C3.49039 7.00508 3.38906 7 3.28 7ZM10.66 9.33333C11.1126 9.33333 11.48 9.68178 11.48 10.1111C11.48 10.5404 11.1126 10.8889 10.66 10.8889C10.2074 10.8889 9.84 10.5404 9.84 10.1111C9.84 9.68178 10.2074 9.33333 10.66 9.33333ZM17.22 9.33333C17.6726 9.33333 18.04 9.68178 18.04 10.1111C18.04 10.5404 17.6726 10.8889 17.22 10.8889C16.7674 10.8889 16.4 10.5404 16.4 10.1111C16.4 9.68178 16.7674 9.33333 17.22 9.33333ZM23.78 9.33333C24.2326 9.33333 24.6 9.68178 24.6 10.1111C24.6 10.5404 24.2326 10.8889 23.78 10.8889C23.3274 10.8889 22.96 10.5404 22.96 10.1111C22.96 9.68178 23.3274 9.33333 23.78 9.33333ZM30.34 9.33333C30.7926 9.33333 31.16 9.68178 31.16 10.1111C31.16 10.5404 30.7926 10.8889 30.34 10.8889C29.8874 10.8889 29.52 10.5404 29.52 10.1111C29.52 9.68178 29.8874 9.33333 30.34 9.33333ZM8.2 14.7778V18.6667H19.68V16.3333C19.68 15.4739 18.9461 14.7778 18.04 14.7778H8.2ZM22.96 14.7778C22.0539 14.7778 21.32 15.4739 21.32 16.3333V18.6667H32.8V14.7778H22.96ZM4.92 25.7062V27.2222C4.92 27.6523 5.28736 28 5.74 28H8.2C8.65264 28 9.02 27.6523 9.02 27.2222V26.4444H8.2C7.02084 26.4444 5.90974 26.1752 4.92 25.7062ZM36.08 25.7062C35.0903 26.1752 33.9792 26.4444 32.8 26.4444H31.98V27.2222C31.98 27.6523 32.3474 28 32.8 28H35.26C35.7126 28 36.08 27.6523 36.08 27.2222V25.7062Z" fill="#00B5E2"/>
</svg>
