<svg width="44" height="31" viewBox="0 0 44 31" fill="none" xmlns="http://www.w3.org/2000/svg">
<path d="M43.0907 26.989L39.2399 22.147V1.78389C39.2399 0.798866 38.4411 0 37.456 0H5.7897C4.80468 0 4.00624 0.798866 4.00624 1.78389V22.147L0.155161 26.989C0.054733 27.1153 0 27.2716 0 27.4337V29.5769C0 30.3633 0.637031 31 1.42314 31H41.8227C42.6088 31 43.2458 30.3633 43.2458 29.5769V27.4337C43.2458 27.2716 43.1914 27.1153 43.0907 26.989ZM6.52286 2.51704H36.723V19.6301H6.52286V2.51704ZM25.6874 29.3074H17.5584V27.1554H25.6874V29.3074Z" fill="#00B5E2"/>
</svg>
