<svg width="22" height="36" viewBox="0 0 22 36" fill="none" xmlns="http://www.w3.org/2000/svg">
<path d="M17.6353 30.2223C17.3408 30.08 17.1554 29.7934 17.1554 29.4801V27.8335H8.3577V29.4801C8.3577 29.7934 8.17235 30.08 7.8778 30.2223C7.08851 30.6038 6.59814 31.3679 6.59814 32.2165V36H18.9149V32.2164C18.9149 31.3678 18.4246 30.6038 17.6353 30.2223Z" fill="#00B5E2"/>
<path d="M19.8828 14.1672V14.1694C19.8828 14.1689 19.8966 14.1672 19.8828 14.1672Z" fill="#00B5E2"/>
<path d="M19.8828 9.33374V9.33591C19.8828 9.33537 19.8966 9.33374 19.8828 9.33374Z" fill="#00B5E2"/>
<path d="M19.8828 10.9983V11.0005C19.8966 11.0005 19.8828 10.9988 19.8828 10.9983Z" fill="#00B5E2"/>
<path d="M19.8826 15.8318V15.834C19.8963 15.834 19.8826 15.8323 19.8826 15.8318Z" fill="#00B5E2"/>
<path d="M21.0953 2.44354C21.0953 2.20701 21.0322 1.97322 20.9116 1.78465C20.6806 1.42282 20.2698 1.16668 19.7906 1.16668H16.7126C16.6813 0.499985 16.1047 0 15.396 0H10.2053C9.49658 0 8.9201 0.499985 8.8887 1.16668H5.72805C5.2489 1.16668 4.83068 1.42282 4.59946 1.78479C4.47898 1.97336 4.42071 2.20047 4.42071 2.43693C4.42071 3.08815 4.92666 3.62934 5.63044 3.68777V7.41667H4.17427C4.06374 7.41667 3.93747 7.42778 3.82917 7.43572C1.69928 7.59484 0 9.29181 0 11.3494V16.6633C0 18.7209 1.69928 20.4114 3.82917 20.5705C3.93755 20.5786 4.06381 20.5831 4.17427 20.5831H5.63052V22.1879C5.63052 24.1607 7.30025 25.7497 9.38293 25.7497H16.1357C18.2184 25.7497 19.8827 24.1607 19.8827 22.1879V20.5831H15.396C14.9101 20.5831 14.5162 20.21 14.5162 19.7498C14.5162 19.2896 14.9101 18.9165 15.396 18.9165H19.8827V15.8332H15.396C14.9101 15.8332 14.5162 15.46 14.5162 14.9998C14.5162 14.5396 14.9101 14.1665 15.396 14.1665H19.8827V10.9999H15.396C14.9101 10.9999 14.5162 10.6267 14.5162 10.1666C14.5162 9.70636 14.9101 9.33322 15.396 9.33322H19.8827V3.6877C20.5866 3.62927 21.0953 3.0949 21.0953 2.44354ZM5.63052 18.083H4.17434C4.06158 18.083 3.93495 18.071 3.82917 18.0485C3.15902 17.9064 2.63926 17.3402 2.63926 16.6633V11.3493C2.63926 10.6724 3.15902 10.0997 3.82917 9.95745C3.93495 9.93495 4.06151 9.91645 4.17434 9.91645H5.63052V18.083Z" fill="#00B5E2"/>
<path d="M19.8828 18.9155V18.9177C19.8828 18.9172 19.8966 18.9155 19.8828 18.9155Z" fill="#00B5E2"/>
<path d="M19.8826 20.5815V20.5837C19.8963 20.5837 19.8826 20.582 19.8826 20.5815Z" fill="#00B5E2"/>
</svg>
