<svg width="40" height="40" viewBox="0 0 40 40" fill="none" xmlns="http://www.w3.org/2000/svg">
<path d="M5.70825 33.3334L3.33325 31L10.1666 24.1667C11.0277 23.3056 11.6183 22.2295 11.9383 20.9384C12.2583 19.6473 12.4177 17.6678 12.4166 15C12.4166 13.3889 12.7777 11.8056 13.4999 10.25C14.2221 8.69448 15.2499 7.25003 16.5833 5.9167C19.111 3.38892 21.9027 1.95836 24.9583 1.62503C28.0138 1.2917 30.5277 2.13892 32.4999 4.1667C34.4999 6.1667 35.3333 8.69448 34.9999 11.75C34.6666 14.8056 33.2499 17.5834 30.7499 20.0834C29.4166 21.4167 27.9721 22.4445 26.4166 23.1667C24.861 23.8889 23.2777 24.25 21.6666 24.25C18.9721 24.25 16.9999 24.4028 15.7499 24.7084C14.4999 25.0139 13.4305 25.6111 12.5416 26.5L5.70825 33.3334ZM17.1666 19.4167C18.4721 20.6945 20.236 21.1667 22.4583 20.8334C24.6805 20.5 26.6666 19.4584 28.4166 17.7084C30.1944 15.9306 31.2571 13.9373 31.6049 11.7284C31.9527 9.51948 31.4733 7.79059 30.1666 6.5417C28.8333 5.20836 27.0905 4.70837 24.9383 5.0417C22.786 5.37503 20.8066 6.43059 18.9999 8.20837C17.2499 9.95837 16.1877 11.9378 15.8133 14.1467C15.4388 16.3556 15.8899 18.1123 17.1666 19.4167ZM29.9999 38.3334C28.1666 38.3334 26.5971 37.6806 25.2916 36.375C23.986 35.0695 23.3333 33.5 23.3333 31.6667C23.3333 29.8334 23.986 28.2639 25.2916 26.9584C26.5971 25.6528 28.1666 25 29.9999 25C31.8333 25 33.4027 25.6528 34.7083 26.9584C36.0138 28.2639 36.6666 29.8334 36.6666 31.6667C36.6666 33.5 36.0138 35.0695 34.7083 36.375C33.4027 37.6806 31.8333 38.3334 29.9999 38.3334Z" fill="#00B5E2"/>
</svg>
