<svg width="40" height="32" viewBox="0 0 40 32" fill="none" xmlns="http://www.w3.org/2000/svg">
<path d="M4 29V19.8062C4 13.0312 8.26875 6.98747 14.6562 4.72497L25.2625 0.968722C26.6 0.493722 28 1.48747 28 2.89997C28 3.58747 27.6562 4.22497 27.0875 4.60622L25 5.99997C28.0062 5.99997 30.7 7.86247 31.7562 10.6812L34.7937 18.775C35.5312 20.7375 35.05 22.95 33.5687 24.4312C32.5687 25.4312 31.2062 26 29.7875 26H29.575C27.9437 26 26.3937 25.275 25.35 24.0187L23.3312 21.6C22.6 21.8562 21.8187 22 21 22C21 22 21 22 20.9937 22C20.6 22 20.2125 21.9687 19.8312 21.9062C19.6062 21.8687 19.3812 21.8187 19.1625 21.7625C17.3562 21.275 15.8437 20.0875 14.925 18.5C14.65 18.025 14.0375 17.8562 13.5562 18.1375C13.075 18.4187 12.9125 19.025 13.1937 19.5062C14.6937 22.1 17.4625 23.8812 20.65 24L23.6 28.425C23.85 28.8062 23.9875 29.25 23.9875 29.7C23.9875 30.9687 22.9562 32 21.6875 32H7C5.34375 32 4 30.6562 4 29ZM24.5 14C24.697 14 24.892 13.9612 25.074 13.8858C25.256 13.8104 25.4214 13.6999 25.5607 13.5606C25.6999 13.4213 25.8104 13.256 25.8858 13.074C25.9612 12.892 26 12.697 26 12.5C26 12.303 25.9612 12.1079 25.8858 11.9259C25.8104 11.744 25.6999 11.5786 25.5607 11.4393C25.4214 11.3 25.256 11.1895 25.074 11.1142C24.892 11.0388 24.697 11 24.5 11C24.303 11 24.108 11.0388 23.926 11.1142C23.744 11.1895 23.5786 11.3 23.4393 11.4393C23.3001 11.5786 23.1896 11.744 23.1142 11.9259C23.0388 12.1079 23 12.303 23 12.5C23 12.697 23.0388 12.892 23.1142 13.074C23.1896 13.256 23.3001 13.4213 23.4393 13.5606C23.5786 13.6999 23.744 13.8104 23.926 13.8858C24.108 13.9612 24.303 14 24.5 14Z" fill="#00B5E2"/>
</svg>
