<svg width="44" height="35" viewBox="0 0 44 35" fill="none" xmlns="http://www.w3.org/2000/svg">
<path d="M35.9195 14.2229C35.4068 14.2229 34.9085 14.2911 34.4238 14.4089L31.5837 3.26774C31.0869 1.31839 29.6709 0 28.0756 0H24.1649V2.69732H28.0756C28.7663 2.69644 29.3773 3.26686 29.5912 4.10796L30.1092 6.14449H24.8941C22.2228 6.14449 20.217 7.86161 20.217 7.86161V12.8729H31.8242L32.4312 15.2527C29.7174 16.9279 27.8404 20.4835 27.8391 24.611C27.8405 30.349 31.4563 34.9983 35.9196 35C40.3815 34.9983 43.9986 30.349 43.9999 24.611C43.9985 18.8739 40.3814 14.2245 35.9195 14.2229ZM39.6561 29.4149C38.6958 30.6461 37.382 31.4043 35.9196 31.4043C34.4557 31.4043 33.1446 30.6462 32.1842 29.4149C31.2265 28.1801 30.6366 26.493 30.6366 24.611C30.6366 22.7299 31.2264 21.0435 32.1842 19.8089C32.5176 19.3802 32.9068 19.0344 33.3173 18.7312L34.2724 22.4797C33.846 23.0245 33.5817 23.7776 33.5817 24.6109C33.5817 26.2717 34.6284 27.6182 35.9196 27.6182C37.2107 27.6182 38.2574 26.2717 38.2574 24.6109C38.2574 23.1047 37.3927 21.8699 36.2688 21.6514L35.3125 17.8978C35.5144 17.8671 35.711 17.8193 35.9196 17.8193C37.382 17.8193 38.6958 18.5767 39.6561 19.8089C40.6138 21.0435 41.201 22.7299 41.2037 24.611C41.201 26.493 40.6138 28.1801 39.6561 29.4149Z" fill="#00B5E2"/>
<path d="M8.07904 14.2229C3.61576 14.2246 0.00137501 18.8739 0 24.611C0.00137501 30.349 3.61576 34.9984 8.07904 35C12.5423 34.9984 16.1581 30.349 16.1594 24.611C16.1581 18.8739 12.5423 14.2246 8.07904 14.2229ZM11.8157 29.4149C10.8553 30.6461 9.54291 31.4044 8.07904 31.4044C6.61517 31.4044 5.3041 30.6462 4.34365 29.4149C3.38458 28.1802 2.79608 26.493 2.79608 24.611C2.79608 22.7299 3.38458 21.0435 4.34365 19.8089C5.3041 18.5767 6.61517 17.8193 8.07904 17.8193C9.54291 17.8193 10.8554 18.5767 11.8157 19.8089C12.7734 21.0435 13.3619 22.7299 13.3633 24.611C13.3619 26.493 12.7735 28.1802 11.8157 29.4149Z" fill="#00B5E2"/>
<path d="M8.07712 21.606C6.78598 21.606 5.73926 22.9508 5.73926 24.6106C5.73926 26.2714 6.78598 27.618 8.07712 27.618C9.36834 27.618 10.4164 26.2714 10.4164 24.6106C10.4164 22.9508 9.36834 21.606 8.07712 21.606Z" fill="#00B5E2"/>
<path d="M37.7335 12.1455V4.86963C35.3398 4.86963 33.8162 6.96847 33.8162 6.96847V10.0458C33.8162 10.0458 35.3398 12.1455 37.7335 12.1455Z" fill="#00B5E2"/>
<path d="M39.9094 4.86963H38.7471V12.1446H39.9094V4.86963Z" fill="#00B5E2"/>
<path d="M6.05848 12.8743H18.9208V8.14983H15.0089C13.9595 8.14983 12.9168 7.93638 11.9191 7.51544L10.5217 6.92546C9.52548 6.50453 8.48133 6.28931 7.43194 6.28931H6.05848C5.33058 6.28931 4.7395 7.05009 4.7395 7.98765V11.1759C4.73942 12.1135 5.3305 12.8743 6.05848 12.8743Z" fill="#00B5E2"/>
<path d="M29.5015 14.8601V14.7107H14.353C16.5899 17.0486 18.0233 20.6143 18.0233 24.6139C18.0233 24.9725 18.1188 25.6923 18.9199 25.6923H24.9293C25.6932 25.6923 25.9707 24.9725 25.9707 24.6139C25.9707 20.7032 27.3442 17.198 29.5015 14.8601Z" fill="#00B5E2"/>
</svg>
