<svg width="44" height="22" viewBox="0 0 44 22" fill="none" xmlns="http://www.w3.org/2000/svg">
<path d="M39.9647 9.0575C39.9481 9.00212 39.9425 8.94666 39.9258 8.89129C39.4437 6.9623 38.2797 5.21056 36.6388 3.786C34.9425 2.3059 32.7253 1.17507 30.2031 0.554245C28.7675 0.194019 27.2321 0 25.6356 0C24.0392 0 22.5037 0.194105 21.068 0.554245C17.8143 1.35805 15.0702 3.00436 13.2909 5.15501C12.3596 6.2748 11.6945 7.53306 11.3508 8.86904H11.0737C10.7023 8.86904 -1.88618 9.85018 0.242216 19.1239H6.11246C6.10698 19.0241 6.10142 18.9244 6.10142 18.8247C6.10142 18.5308 6.12915 18.237 6.17348 17.9821C6.58369 15.665 8.59021 13.9799 10.9462 13.9799C13.3022 13.9799 15.3087 15.6651 15.7133 17.9654C15.7633 18.237 15.7909 18.5308 15.7909 18.8247C15.7909 18.9144 15.7858 19.0042 15.781 19.0942C15.78 19.0969 15.7807 19.1008 15.7798 19.1036H15.7805C15.7802 19.1104 15.7802 19.1172 15.7798 19.1239H28.1078C28.1024 19.0241 28.0968 18.9244 28.0968 18.8247C28.0968 18.5308 28.1245 18.237 28.1689 17.9821C28.5791 15.665 30.5858 13.9799 32.9416 13.9799C35.2975 13.9799 37.304 15.6651 37.7087 17.9598C37.7587 18.237 37.7863 18.5308 37.7863 18.8247C37.7863 18.9141 37.7813 19.0035 37.7764 19.0931C37.7756 19.0961 37.7762 19.1006 37.7752 19.1036H37.7761C37.7756 19.1104 37.7756 19.1172 37.7752 19.1239H42.6295C43.2824 19.1239 43.8119 18.5931 43.8143 17.9402C43.8374 11.6285 43.9328 10.4936 39.9647 9.0575ZM13.6703 8.86254C13.9532 8.06112 14.3901 7.29831 14.9925 6.57409C16.4948 4.7615 18.8395 3.38675 21.5999 2.70498C22.897 2.38336 24.2497 2.21724 25.6354 2.21724C26.7739 2.21724 27.8866 2.33303 28.9632 2.55521C29.0393 2.57224 29.117 2.58482 29.1929 2.60314L26.6444 8.86904H16.8171L13.6703 8.86254ZM29.0422 8.86159L31.3396 3.22063C32.8084 3.76923 34.1167 4.52323 35.1809 5.45439C36.3067 6.42997 37.1079 7.55754 37.5508 8.74854C37.5652 8.78885 37.5822 8.82864 37.5957 8.86904H31.3448L29.0422 8.86159Z" fill="#00B5E2"/>
<path d="M10.9468 15.6421C9.37816 15.6421 8.07531 16.7785 7.81487 18.2695C7.78158 18.447 7.76489 18.6353 7.76489 18.8239C7.76489 18.9236 7.77037 19.0233 7.78158 19.1232C7.93118 20.7362 9.28932 22.0001 10.9467 22.0001C12.604 22.0001 13.9622 20.7362 14.1119 19.1232C14.123 19.0233 14.1284 18.9236 14.1284 18.8239C14.1284 18.6353 14.1119 18.447 14.0786 18.2695C13.8182 16.7784 12.5155 15.6421 10.9468 15.6421Z" fill="#51A197" fill-opacity="0.5"/>
<path d="M32.9419 15.6421C31.3731 15.6421 30.0704 16.7785 29.81 18.2695C29.7768 18.447 29.76 18.6353 29.76 18.8239C29.76 18.9236 29.7657 19.0233 29.7768 19.1232C29.9264 20.7362 31.2845 22.0001 32.9419 22.0001C34.5992 22.0001 35.9574 20.7362 36.1071 19.1232C36.1182 19.0233 36.1236 18.9236 36.1236 18.8239C36.1236 18.6353 36.1071 18.447 36.0738 18.2695C35.8133 16.7784 34.5106 15.6421 32.9419 15.6421Z" fill="#51A197" fill-opacity="0.5"/>
</svg>
