<svg width="36" height="30" viewBox="0 0 36 30" fill="none" xmlns="http://www.w3.org/2000/svg">
<path d="M9.93506 4.6875V30H14.9024V24.8438C14.9024 24.5845 15.1491 24.375 15.4543 24.375H19.8698C20.175 24.375 20.4217 24.5845 20.4217 24.8438V30H25.389V9.375V1.875C25.389 0.838594 24.4016 0 23.1813 0H12.1428C10.9225 0 9.93506 0.838594 9.93506 1.875V4.6875ZM18.7659 4.21875C18.7659 3.95953 19.0126 3.75 19.3178 3.75H21.5255C21.8308 3.75 22.0775 3.95953 22.0775 4.21875V6.09375C22.0775 6.35297 21.8308 6.5625 21.5255 6.5625H19.3178C19.0126 6.5625 18.7659 6.35297 18.7659 6.09375V4.21875ZM18.7659 8.90625C18.7659 8.64703 19.0126 8.4375 19.3178 8.4375H21.5255C21.8308 8.4375 22.0775 8.64703 22.0775 8.90625V10.7812C22.0775 11.0405 21.8308 11.25 21.5255 11.25H19.3178C19.0126 11.25 18.7659 11.0405 18.7659 10.7812V8.90625ZM18.7659 13.5938C18.7659 13.3345 19.0126 13.125 19.3178 13.125H21.5255C21.8308 13.125 22.0775 13.3345 22.0775 13.5938V15.4688C22.0775 15.728 21.8308 15.9375 21.5255 15.9375H19.3178C19.0126 15.9375 18.7659 15.728 18.7659 15.4688V13.5938ZM18.7659 18.2812C18.7659 18.022 19.0126 17.8125 19.3178 17.8125H21.5255C21.8308 17.8125 22.0775 18.022 22.0775 18.2812V20.1562C22.0775 20.4155 21.8308 20.625 21.5255 20.625H19.3178C19.0126 20.625 18.7659 20.4155 18.7659 20.1562V18.2812ZM13.2466 4.21875C13.2466 3.95953 13.4933 3.75 13.7986 3.75H16.0063C16.3115 3.75 16.5582 3.95953 16.5582 4.21875V6.09375C16.5582 6.35297 16.3115 6.5625 16.0063 6.5625H13.7986C13.4933 6.5625 13.2466 6.35297 13.2466 6.09375V4.21875ZM13.2466 8.90625C13.2466 8.64703 13.4933 8.4375 13.7986 8.4375H16.0063C16.3115 8.4375 16.5582 8.64703 16.5582 8.90625V10.7812C16.5582 11.0405 16.3115 11.25 16.0063 11.25H13.7986C13.4933 11.25 13.2466 11.0405 13.2466 10.7812V8.90625ZM13.2466 13.5938C13.2466 13.3345 13.4933 13.125 13.7986 13.125H16.0063C16.3115 13.125 16.5582 13.3345 16.5582 13.5938V15.4688C16.5582 15.728 16.3115 15.9375 16.0063 15.9375H13.7986C13.4933 15.9375 13.2466 15.728 13.2466 15.4688V13.5938ZM13.2466 18.2812C13.2466 18.022 13.4933 17.8125 13.7986 17.8125H16.0063C16.3115 17.8125 16.5582 18.022 16.5582 18.2812V20.1562C16.5582 20.4155 16.3115 20.625 16.0063 20.625H13.7986C13.4933 20.625 13.2466 20.4155 13.2466 20.1562V18.2812Z" fill="#00B5E2"/>
<path d="M15.454 14.062H14.3501V14.9995H15.454V14.062Z" fill="#00B5E2"/>
<path d="M15.454 18.7493H14.3501V19.6868H15.454V18.7493Z" fill="#00B5E2"/>
<path d="M19.3174 25.3125H16.0059V30H19.3174V25.3125Z" fill="#00B5E2"/>
<path d="M5.51963 23.438H4.41577V24.3755H5.51963V23.438Z" fill="#00B5E2"/>
<path d="M15.454 4.6875H14.3501V5.625H15.454V4.6875Z" fill="#00B5E2"/>
<path d="M15.454 9.37476H14.3501V10.3123H15.454V9.37476Z" fill="#00B5E2"/>
<path d="M20.9737 9.37476H19.8699V10.3123H20.9737V9.37476Z" fill="#00B5E2"/>
<path d="M20.9737 4.6875H19.8699V5.625H20.9737V4.6875Z" fill="#00B5E2"/>
<path d="M20.9737 14.062H19.8699V14.9995H20.9737V14.062Z" fill="#00B5E2"/>
<path d="M20.9737 18.7493H19.8699V19.6868H20.9737V18.7493Z" fill="#00B5E2"/>
<path d="M5.51963 18.7493H4.41577V19.6868H5.51963V18.7493Z" fill="#00B5E2"/>
<path d="M8.83084 4.6875H2.20771C0.987398 4.6875 0 5.52609 0 6.5625V28.125C0 29.1614 0.987398 30 2.20771 30H8.83084V4.6875ZM6.62313 24.8438C6.62313 25.103 6.37642 25.3125 6.0712 25.3125H3.86349C3.55828 25.3125 3.31157 25.103 3.31157 24.8438V22.9688C3.31157 22.7095 3.55828 22.5 3.86349 22.5H6.0712C6.37642 22.5 6.62313 22.7095 6.62313 22.9688V24.8438ZM6.62313 20.1563C6.62313 20.4155 6.37642 20.625 6.0712 20.625H3.86349C3.55828 20.625 3.31157 20.4155 3.31157 20.1563V18.2813C3.31157 18.022 3.55828 17.8125 3.86349 17.8125H6.0712C6.37642 17.8125 6.62313 18.022 6.62313 18.2813V20.1563ZM6.62313 15.4688C6.62313 15.728 6.37642 15.9375 6.0712 15.9375H3.86349C3.55828 15.9375 3.31157 15.728 3.31157 15.4688V13.5938C3.31157 13.3345 3.55828 13.125 3.86349 13.125H6.0712C6.37642 13.125 6.62313 13.3345 6.62313 13.5938V15.4688ZM6.0712 11.25H3.86349C3.55828 11.25 3.31157 11.0405 3.31157 10.7813V8.90625C3.31157 8.64703 3.55828 8.4375 3.86349 8.4375H6.0712C6.37642 8.4375 6.62313 8.64703 6.62313 8.90625V10.7813C6.62313 11.0405 6.37642 11.25 6.0712 11.25Z" fill="#00B5E2"/>
<path d="M30.9083 23.438H29.8044V24.3755H30.9083V23.438Z" fill="#00B5E2"/>
<path d="M30.9083 18.7493H29.8044V19.6868H30.9083V18.7493Z" fill="#00B5E2"/>
<path d="M30.9083 14.062H29.8044V14.9995H30.9083V14.062Z" fill="#00B5E2"/>
<path d="M33.1163 9.37476H26.4932V29.9998H33.1163C34.3366 29.9998 35.324 29.1612 35.324 28.1248V11.2498C35.324 10.2133 34.3366 9.37476 33.1163 9.37476ZM32.0124 24.8435C32.0124 25.1027 31.7657 25.3123 31.4605 25.3123H29.2528C28.9476 25.3123 28.7009 25.1027 28.7009 24.8435V22.9685C28.7009 22.7093 28.9476 22.4998 29.2528 22.4998H31.4605C31.7657 22.4998 32.0124 22.7093 32.0124 22.9685V24.8435ZM32.0124 20.156C32.0124 20.4152 31.7657 20.6248 31.4605 20.6248H29.2528C28.9476 20.6248 28.7009 20.4152 28.7009 20.156V18.281C28.7009 18.0218 28.9476 17.8123 29.2528 17.8123H31.4605C31.7657 17.8123 32.0124 18.0218 32.0124 18.281V20.156ZM32.0124 15.4685C32.0124 15.7277 31.7657 15.9373 31.4605 15.9373H29.2528C28.9476 15.9373 28.7009 15.7277 28.7009 15.4685V13.5935C28.7009 13.3343 28.9476 13.1248 29.2528 13.1248H31.4605C31.7657 13.1248 32.0124 13.3343 32.0124 13.5935V15.4685Z" fill="#00B5E2"/>
<path d="M5.51963 14.062H4.41577V14.9995H5.51963V14.062Z" fill="#00B5E2"/>
<path d="M5.51963 9.37476H4.41577V10.3123H5.51963V9.37476Z" fill="#00B5E2"/>
</svg>
