<svg width="40" height="40" viewBox="0 0 40 40" fill="none" xmlns="http://www.w3.org/2000/svg">
<path d="M1.66675 16.1112C1.66675 16.1112 2.44453 14.0001 3.55564 10.889C4.38897 8.6112 7.00008 7.33342 8.38897 6.77786C8.83342 6.6112 9.33342 6.83342 9.50008 7.33342C10.0001 8.94453 10.6667 12.389 14.9445 13.9445C20.6112 16.0001 22.0556 11.7223 22.2779 11.2223C22.5001 10.7223 23.4445 9.94453 24.7779 12.1112C26.1112 14.3334 26.389 16.1668 27.7223 19.0001C29.0556 21.8334 28.5556 24.7223 35.2223 27.1668C36.4445 27.6112 40.2779 28.8334 38.6112 33.3334C38.6112 33.3334 31.6667 32.5001 26.9445 30.7779C22.2223 29.0556 17.889 26.2223 16.2223 23.389C14.5556 20.5556 1.66675 16.1112 1.66675 16.1112Z" fill="#00B5E2"/>
<path d="M24.8334 16.7778C24.7223 16.7778 24.6112 16.7223 24.5557 16.6112C24.5001 16.4445 24.5557 16.2778 24.7223 16.2223L26.389 15.5001C26.5557 15.4445 26.7223 15.5001 26.7779 15.6667C26.8334 15.8334 26.7779 16.0001 26.6112 16.0556L24.9446 16.7778H24.8334ZM24.1668 15.3889C24.0557 15.3889 23.9446 15.3334 23.889 15.2223C23.8334 15.0556 23.889 14.8889 24.0557 14.8334L25.7223 14.1112C25.889 14.0556 26.0557 14.1112 26.1112 14.2778C26.1668 14.4445 26.1112 14.6112 25.9446 14.6667L24.2779 15.3889H24.1668ZM25.4446 18.0556C25.3334 18.0556 25.2223 18.0001 25.1668 17.8889C25.1112 17.7223 25.1668 17.5556 25.3334 17.5001L26.8334 16.8334C27.0001 16.7778 27.1668 16.8334 27.2223 17.0001C27.2779 17.1667 27.2223 17.3334 27.0557 17.3889L25.5557 18.0556H25.4446ZM26.0001 19.3334C25.889 19.3334 25.7779 19.2778 25.7223 19.1667C25.6668 19.0001 25.7223 18.8334 25.889 18.7778L27.3334 18.1667C27.5001 18.1112 27.6668 18.1667 27.7223 18.3334C27.7779 18.5001 27.7223 18.6667 27.5557 18.7223L26.1112 19.3334H26.0001Z" fill="#2B3B47"/>
<path d="M21.7777 23.6112C22.7777 24.0001 23.8333 24.1112 24.7777 24.0556C26.611 24.0001 28.0555 23.2223 28.7777 22.0556C28.6666 21.7778 28.5555 21.5001 28.4999 21.2223C28.0555 22.5001 26.6666 23.2778 24.7777 23.389C22.7221 23.5001 20.1666 22.6112 19.2777 20.7223C17.2777 16.4445 14.2777 12.5556 6.83325 16.0556C6.66659 16.1112 6.61103 16.3334 6.66659 16.4445C6.72214 16.5556 6.94436 16.6667 7.05547 16.6112C12.611 14.0001 15.9999 15.2778 18.6666 21.0001C19.3333 22.3334 20.4999 23.1667 21.7777 23.6112ZM28.1666 30.5556C28.3333 30.6112 28.4999 30.5556 28.5555 30.389C29.2777 28.389 30.4444 26.0001 31.4444 25.3334C31.2221 25.2223 31.0555 25.1112 30.8333 25.0001C29.5555 26.1112 28.3888 28.889 27.9444 30.1667C27.8888 30.2778 27.9999 30.5001 28.1666 30.5556Z" fill="#00B5E2"/>
<path d="M39.4999 32.7223C39.4443 32.7223 33.111 31.7779 30.2777 30.7223L25.4443 28.9445C20.2777 27.0556 18.9999 25.4445 17.4999 23.5556C15.4999 21.0556 13.2221 18.1667 2.27767 14.1667L1.66656 15.8334V15.889L0.277667 19.7223C0.111001 20.2223 0.333223 20.7223 0.722112 20.889L10.8332 24.5556C11.2777 24.7223 11.7777 24.4445 11.9443 23.9445L12.8888 21.389V21.3334C14.4443 22.5556 15.2777 23.6112 16.111 24.6112C17.7221 26.6112 19.2221 28.5001 24.8332 30.5556L29.6666 32.3334C32.6666 33.4445 38.9443 34.389 39.2221 34.389C39.7777 34.1112 39.9999 33.0556 39.4999 32.7223Z" fill="#2B3B47"/>
</svg>
