<svg width="40" height="40" viewBox="0 0 40 40" fill="none" xmlns="http://www.w3.org/2000/svg">
<path d="M10.8333 15.8332C10.8333 15.3911 11.0088 14.9672 11.3214 14.6547C11.634 14.3421 12.0579 14.1665 12.4999 14.1665H25.8333C26.2753 14.1665 26.6992 14.3421 27.0118 14.6547C27.3243 14.9672 27.4999 15.3911 27.4999 15.8332V31.6665C27.4999 31.6665 27.4999 36.6665 22.4999 36.6665H15.8333C10.8333 36.6665 10.8333 31.6665 10.8333 31.6665V15.8332Z" fill="#00B5E2" stroke="#00B5E2" stroke-width="2" stroke-linecap="round" stroke-linejoin="round"/>
<path d="M15 9.99992H23.3333M15 9.99992V14.1666H23.3333V9.99992M15 9.99992V7.49992C15 4.99992 17.5 3.33325 20 3.33325H29.1667C29.1667 3.33325 23.3333 4.99992 23.3333 8.33325V9.99992" stroke="#00B5E2" stroke-width="2" stroke-linecap="round" stroke-linejoin="round"/>
</svg>
