<svg width="40" height="40" viewBox="0 0 40 40" fill="none" xmlns="http://www.w3.org/2000/svg">
<path d="M30.0001 15.0001H20.0001V6.66675H13.3334C9.66675 6.66675 6.66675 9.66675 6.66675 13.3334V23.3334C6.66675 25.1667 8.16675 26.6667 10.0001 26.6667H13.3334V31.5001C12.3334 30.8334 11.3334 30.1667 10.5001 29.3334L8.16675 31.6667C11.1667 34.8334 15.3334 36.6667 20.0001 36.6667C24.6667 36.6667 28.8334 34.8334 31.8334 31.8334L29.5001 29.5001C28.6667 30.3334 27.8334 31.0001 26.8334 31.6667V26.6667H30.1667C32.0001 26.6667 33.5001 25.1667 33.5001 23.3334V18.3334C33.3334 16.5001 31.8334 15.0001 30.0001 15.0001ZM23.3334 33.0001C22.3334 33.3334 21.1667 33.3334 20.0001 33.3334C18.8334 33.3334 17.6667 33.1667 16.6667 33.0001V26.6667H23.3334V33.0001Z" fill="#00B5E2"/>
</svg>
