<svg width="40" height="40" viewBox="0 0 40 40" fill="none" xmlns="http://www.w3.org/2000/svg">
<path d="M22.4999 36.6666C19.4999 36.6666 16.9444 35.611 14.8333 33.4999C12.7221 31.3888 11.6666 28.8333 11.6666 25.8333V24.8749C9.2777 24.486 7.29159 23.3677 5.70825 21.5199C4.12492 19.6721 3.33325 17.4988 3.33325 14.9999V6.66659C3.33325 6.19437 3.49325 5.79881 3.81325 5.47992C4.13325 5.16104 4.52881 5.00104 4.99992 4.99992H8.33325C8.33325 4.5277 8.49325 4.13215 8.81325 3.81326C9.13325 3.49437 9.52881 3.33437 9.99992 3.33326C10.471 3.33215 10.8671 3.49215 11.1883 3.81326C11.5094 4.13437 11.6688 4.52992 11.6666 4.99992V8.33326C11.6666 8.80548 11.5066 9.20159 11.1866 9.52159C10.8666 9.84159 10.471 10.001 9.99992 9.99992C9.52881 9.99881 9.13325 9.83881 8.81325 9.51992C8.49325 9.20104 8.33325 8.80548 8.33325 8.33326H6.66659V14.9999C6.66659 16.8333 7.31936 18.4027 8.62492 19.7083C9.93047 21.0138 11.4999 21.6666 13.3333 21.6666C15.1666 21.6666 16.736 21.0138 18.0416 19.7083C19.3471 18.4027 19.9999 16.8333 19.9999 14.9999V8.33326H18.3333C18.3333 8.80548 18.1733 9.20159 17.8533 9.52159C17.5333 9.84159 17.1377 10.001 16.6666 9.99992C16.1955 9.99881 15.7999 9.83881 15.4799 9.51992C15.1599 9.20104 14.9999 8.80548 14.9999 8.33326V4.99992C14.9999 4.5277 15.1599 4.13215 15.4799 3.81326C15.7999 3.49437 16.1955 3.33437 16.6666 3.33326C17.1377 3.33215 17.5338 3.49215 17.8549 3.81326C18.176 4.13437 18.3355 4.52992 18.3333 4.99992H21.6666C22.1388 4.99992 22.5349 5.15992 22.8549 5.47992C23.1749 5.79992 23.3344 6.19548 23.3333 6.66659V14.9999C23.3333 17.4999 22.5416 19.6738 20.9583 21.5216C19.3749 23.3694 17.3888 24.4871 14.9999 24.8749V25.8333C14.9999 27.9166 15.7294 29.6877 17.1883 31.1466C18.6471 32.6055 20.4177 33.3344 22.4999 33.3333C24.5821 33.3321 26.3533 32.6033 27.8133 31.1466C29.2733 29.6899 30.0021 27.9188 29.9999 25.8333V23.0416C29.0277 22.6805 28.2294 22.076 27.6049 21.2283C26.9805 20.3805 26.6677 19.4155 26.6666 18.3333C26.6666 16.9444 27.1527 15.7638 28.1249 14.7916C29.0971 13.8194 30.2777 13.3333 31.6666 13.3333C33.0555 13.3333 34.236 13.8194 35.2083 14.7916C36.1805 15.7638 36.6666 16.9444 36.6666 18.3333C36.6666 19.4166 36.3544 20.3821 35.7299 21.2299C35.1055 22.0777 34.3066 22.6816 33.3333 23.0416V25.8333C33.3333 28.8333 32.2777 31.3888 30.1666 33.4999C28.0555 35.611 25.4999 36.6666 22.4999 36.6666Z" fill="#00B5E2"/>
</svg>
