<svg width="40" height="40" viewBox="0 0 40 40" fill="none" xmlns="http://www.w3.org/2000/svg">
<path d="M39.9583 21.1409C39.9219 21.0687 39.0642 19.4017 35.9158 18.3806C35.6771 16.5058 33.9483 6.2242 24.7586 3.3623C24.4816 1.98974 23.4774 0 21.0876 0H18.9132C16.5225 0 15.5182 1.98974 15.2412 3.3623C6.05147 6.2242 4.32276 16.5058 4.08401 18.3806C0.935615 19.4016 0.0779877 21.0687 0.0415296 21.1409C-0.0278407 21.2818 -0.00792984 21.4447 0.0835335 21.572L0.0788054 21.5752C0.140811 21.661 1.39039 23.3374 4.2513 24.227C4.4435 25.9548 5.87809 35.0786 14.6869 36.9211C14.8817 37.4389 15.1854 37.9956 15.6814 38.4962C16.6696 39.4939 18.1222 40 20 40C21.8778 40 23.3304 39.4939 24.3186 38.4962C24.8145 37.9956 25.1182 37.4389 25.3131 36.9211C34.1219 35.0786 35.5565 25.9548 35.7487 24.227C38.6096 23.3374 39.8592 21.661 39.9212 21.5752L39.9165 21.572C40.0079 21.4446 40.0277 21.2818 39.9583 21.1409ZM35.4664 23.3972C34.4543 22.2005 33.1667 21.3136 32.0414 20.6985C34.2509 20.9386 36.4565 21.2493 38.6575 21.6218C38.0952 22.1353 37.056 22.8983 35.4664 23.3972ZM33.737 23.779C31.794 22.0484 29.4531 20.9633 27.3553 20.2878C28.0036 20.3308 28.6517 20.3829 29.2996 20.4372C29.7859 20.6008 32.5999 21.6118 34.499 23.6459C34.2552 23.6973 34.0018 23.7422 33.737 23.779ZM25.0876 34.6782C21.7114 34.86 18.2882 34.86 14.9121 34.6782C8.16195 32.3737 7.02857 25.6519 6.87619 24.4099C10.899 20.8295 16.9533 20.1593 18.0519 20.0654C19.3506 20.0426 20.6493 20.0426 21.948 20.0654C23.0472 20.1594 29.1009 20.8295 33.1234 24.4103C32.9728 25.652 31.851 32.3696 25.0876 34.6782ZM6.26267 23.779C5.99783 23.7421 5.74453 23.6973 5.5006 23.646C7.3996 21.6118 10.2138 20.6009 10.7 20.4373C11.348 20.383 11.996 20.3309 12.6444 20.2879C10.5465 20.9634 8.20559 22.0483 6.26267 23.779ZM1.3422 21.6218C3.54314 21.2493 5.74881 20.9386 7.95829 20.6985C6.833 21.3136 5.54542 22.2005 4.53333 23.3972C2.94372 22.8983 1.90453 22.1354 1.3422 21.6218ZM18.9132 0.87025H21.0876C22.7776 0.87025 23.4702 2.18389 23.7476 3.08599C22.6081 2.81509 21.3687 2.648 20.0088 2.6218H19.9911C18.63 2.64808 17.3897 2.81543 16.2494 3.08678C16.524 2.18485 17.2139 0.87025 18.9132 0.87025ZM5.19839 24.4732C5.45141 24.5285 5.71498 24.5766 5.98892 24.6179C6.20349 26.2035 7.5187 32.9118 14.364 35.4001C14.3709 35.544 14.3907 35.7294 14.4259 35.9474C7.06257 34.1108 5.4926 26.6132 5.19839 24.4732ZM25.5739 35.9474C25.6091 35.7294 25.6289 35.544 25.6358 35.4001C32.4811 32.9118 33.7964 26.2034 34.0109 24.6179C34.2848 24.5766 34.5484 24.5285 34.8014 24.4732C34.5073 26.6132 32.9372 34.1108 25.5739 35.9474ZM25.2126 6.61146C25.3316 6.40069 25.6059 6.32036 25.8279 6.43341C25.9425 6.4925 28.6709 7.91466 30.5958 10.9393C30.7263 11.1445 30.6588 11.4123 30.4439 11.5372C30.3702 11.5805 30.2885 11.6009 30.2077 11.6009C30.055 11.6009 29.905 11.5265 29.8197 11.3923C28.028 8.5784 25.4238 7.21394 25.3981 7.20036C25.177 7.08645 25.0945 6.82311 25.2126 6.61146Z" fill="#00B5E2"/>
</svg>
