<svg width="24" height="24" viewBox="0 0 24 24" fill="none" xmlns="http://www.w3.org/2000/svg">
<path d="M5.50586 15.992L8.02986 9.02899C8.48986 8.06199 9.19186 7.26299 9.99686 9.17999C10.7399 10.95 11.8469 14.19 12.5019 15.995M6.65186 13.002H11.3209" stroke="black" stroke-linecap="round" stroke-linejoin="round"/>
<path d="M3.464 4.318C2 5.636 2 7.758 2 12C2 16.242 2 18.364 3.464 19.682C4.93 21 7.286 21 12 21C16.714 21 19.071 21 20.535 19.682C21.999 18.364 22 16.242 22 12C22 7.758 22 5.636 20.535 4.318C19.072 3 16.714 3 12 3C7.286 3 4.929 3 3.464 4.318Z" stroke="black" stroke-linecap="round" stroke-linejoin="round"/>
<path d="M18.4839 8.98682V11.9818M18.4839 11.9818V15.9248M18.4839 11.9818H16.4659C16.2259 11.9818 15.9879 12.0258 15.7639 12.1128C14.0709 12.7698 14.0709 15.2128 15.7639 15.8698C15.9889 15.9568 16.2259 16.0008 16.4659 16.0008H18.4839" stroke="black" stroke-linecap="round" stroke-linejoin="round"/>
</svg>
