<svg width="24" height="24" viewBox="0 0 24 24" fill="none" xmlns="http://www.w3.org/2000/svg">
<path d="M12.825 15.783C12.175 15.787 11.5393 15.7173 10.918 15.574C10.2967 15.4307 9.762 15.1347 9.314 14.686C8.95467 14.3273 8.678 13.9173 8.484 13.456C8.28933 12.9947 8.192 12.5113 8.192 12.006C8.192 11.788 8.207 11.5807 8.237 11.384C8.26633 11.1867 8.31867 10.9873 8.394 10.786C8.43533 10.6633 8.43133 10.5437 8.382 10.427C8.33267 10.3103 8.25467 10.2293 8.148 10.184C8.038 10.1393 7.92567 10.1427 7.811 10.194C7.69633 10.2453 7.61833 10.3327 7.577 10.456C7.49367 10.706 7.428 10.9593 7.38 11.216C7.332 11.472 7.308 11.7333 7.308 12C7.308 12.628 7.42733 13.227 7.666 13.797C7.90533 14.367 8.24533 14.8723 8.686 15.313C9.20067 15.8437 9.81667 16.202 10.534 16.388C11.2513 16.5747 11.9797 16.6697 12.719 16.673L11.756 17.637C11.67 17.723 11.6237 17.8243 11.617 17.941C11.6103 18.0577 11.6567 18.1653 11.756 18.264C11.8553 18.3627 11.9597 18.412 12.069 18.412C12.1783 18.412 12.283 18.3627 12.383 18.264L13.906 16.741C14.0673 16.579 14.148 16.3903 14.148 16.175C14.148 15.9597 14.0673 15.7713 13.906 15.61L12.383 14.087C12.2963 14.0003 12.195 13.954 12.079 13.948C11.9623 13.9413 11.8547 13.9877 11.756 14.087C11.6573 14.1863 11.608 14.2907 11.608 14.4C11.608 14.5093 11.6573 14.614 11.756 14.714L12.825 15.783ZM11.189 8.212C11.839 8.212 12.4753 8.28333 13.098 8.426C13.7213 8.56867 14.2573 8.86433 14.706 9.313C15.0647 9.67233 15.3413 10.0827 15.536 10.544C15.7307 11.0053 15.8277 11.4887 15.827 11.994C15.827 12.212 15.8123 12.4193 15.783 12.616C15.7537 12.8127 15.701 13.0117 15.625 13.213C15.5843 13.3363 15.5887 13.4573 15.638 13.576C15.6873 13.6947 15.765 13.7763 15.871 13.821C15.9817 13.8657 16.0943 13.8657 16.209 13.821C16.3237 13.7763 16.4013 13.6923 16.442 13.569C16.5253 13.319 16.5913 13.0617 16.64 12.797C16.688 12.5323 16.712 12.2667 16.712 12C16.712 11.372 16.5943 10.773 16.359 10.203C16.1237 9.633 15.7837 9.12567 15.339 8.681C14.8203 8.14967 14.2023 7.79233 13.485 7.609C12.7683 7.425 12.04 7.333 11.3 7.333L12.27 6.363C12.3513 6.277 12.3953 6.17567 12.402 6.059C12.4087 5.94233 12.3627 5.83467 12.264 5.736C12.1653 5.63733 12.0607 5.58833 11.95 5.589C11.8393 5.58967 11.735 5.63867 11.637 5.736L10.114 7.26C9.952 7.422 9.871 7.61067 9.871 7.826C9.871 8.04133 9.952 8.22967 10.114 8.391L11.637 9.914C11.723 10.0007 11.8243 10.047 11.941 10.053C12.0577 10.059 12.1653 10.013 12.264 9.915C12.3627 9.817 12.412 9.71233 12.412 9.601C12.412 9.48967 12.3627 9.38533 12.264 9.288L11.189 8.212ZM12 21C10.7573 21 9.58867 20.7633 8.494 20.29C7.39933 19.816 6.447 19.174 5.637 18.364C4.82633 17.5533 4.18433 16.6007 3.711 15.506C3.237 14.4113 3 13.2427 3 12C3 10.7573 3.23667 9.58867 3.71 8.494C4.18333 7.39933 4.82567 6.447 5.637 5.637C6.44833 4.827 7.40067 4.18467 8.494 3.71C9.58933 3.23667 10.758 3 12 3C13.242 3 14.4107 3.23667 15.506 3.71C16.6007 4.184 17.553 4.82633 18.363 5.637C19.1737 6.447 19.8157 7.39933 20.289 8.494C20.763 9.58933 21 10.758 21 12C21 13.242 20.7633 14.4107 20.29 15.506C19.816 16.6007 19.174 17.553 18.364 18.363C17.5533 19.1737 16.6007 19.8157 15.506 20.289C14.4113 20.763 13.2427 21 12 21ZM12 20C14.2333 20 16.125 19.225 17.675 17.675C19.225 16.125 20 14.2333 20 12C20 9.76667 19.225 7.875 17.675 6.325C16.125 4.775 14.2333 4 12 4C9.76667 4 7.875 4.775 6.325 6.325C4.775 7.875 4 9.76667 4 12C4 14.2333 4.775 16.125 6.325 17.675C7.875 19.225 9.76667 20 12 20Z" fill="black"/>
</svg>
