<svg width="70" height="70" viewBox="0 0 70 70" fill="none" xmlns="http://www.w3.org/2000/svg">
<g clip-path="url(#clip0_139_622)">
<path fill-rule="evenodd" clip-rule="evenodd" d="M38.5 56C40.3565 56 42.137 56.7375 43.4497 58.0503C44.7625 59.363 45.5 61.1435 45.5 63C45.5 64.8565 44.7625 66.637 43.4497 67.9497C42.137 69.2625 40.3565 70 38.5 70C36.6435 70 34.863 69.2625 33.5503 67.9497C32.2375 66.637 31.5 64.8565 31.5 63C31.5 61.1435 32.2375 59.363 33.5503 58.0503C34.863 56.7375 36.6435 56 38.5 56ZM16.5935 45.5C18.9141 45.5 21.1397 46.4219 22.7807 48.0628C24.4216 49.7038 25.3435 51.9294 25.3435 54.25C25.3435 56.5706 24.4216 58.7962 22.7807 60.4372C21.1397 62.0781 18.9141 63 16.5935 63C14.2729 63 12.0473 62.0781 10.4063 60.4372C8.76537 58.7962 7.8435 56.5706 7.8435 54.25C7.8435 51.9294 8.76537 49.7038 10.4063 48.0628C12.0473 46.4219 14.2729 45.5 16.5935 45.5ZM57.1165 47.25C58.973 47.25 60.7535 47.9875 62.0662 49.3003C63.379 50.613 64.1165 52.3935 64.1165 54.25C64.1165 56.1065 63.379 57.887 62.0662 59.1997C60.7535 60.5125 58.973 61.25 57.1165 61.25C55.26 61.25 53.4795 60.5125 52.1668 59.1997C50.854 57.887 50.1165 56.1065 50.1165 54.25C50.1165 52.3935 50.854 50.613 52.1668 49.3003C53.4795 47.9875 55.26 47.25 57.1165 47.25ZM64.75 32.6165C66.1424 32.6165 67.4777 33.1696 68.4623 34.1542C69.4469 35.1388 70 36.4741 70 37.8665C70 39.2589 69.4469 40.5942 68.4623 41.5788C67.4777 42.5634 66.1424 43.1165 64.75 43.1165C63.3576 43.1165 62.0223 42.5634 61.0377 41.5788C60.0531 40.5942 59.5 39.2589 59.5 37.8665C59.5 36.4741 60.0531 35.1388 61.0377 34.1542C62.0223 33.1696 63.3576 32.6165 64.75 32.6165ZM8.75 21C11.0706 21 13.2962 21.9219 14.9372 23.5628C16.5781 25.2038 17.5 27.4294 17.5 29.75C17.5 32.0706 16.5781 34.2962 14.9372 35.9372C13.2962 37.5781 11.0706 38.5 8.75 38.5C6.42936 38.5 4.20376 37.5781 2.56282 35.9372C0.921872 34.2962 0 32.0706 0 29.75C0 27.4294 0.921872 25.2038 2.56282 23.5628C4.20376 21.9219 6.42936 21 8.75 21ZM62.251 18.2245C63.1793 18.2245 64.0695 18.5932 64.7259 19.2496C65.3822 19.906 65.751 20.7962 65.751 21.7245C65.751 22.6528 65.3822 23.543 64.7259 24.1994C64.0695 24.8558 63.1793 25.2245 62.251 25.2245C61.3227 25.2245 60.4325 24.8558 59.7761 24.1994C59.1198 23.543 58.751 22.6528 58.751 21.7245C58.751 20.7962 59.1198 19.906 59.7761 19.2496C60.4325 18.5932 61.3227 18.2245 62.251 18.2245ZM28 0C30.7848 0 33.4555 1.10625 35.4246 3.07538C37.3938 5.04451 38.5 7.71523 38.5 10.5C38.5 13.2848 37.3938 15.9555 35.4246 17.9246C33.4555 19.8938 30.7848 21 28 21C25.2152 21 22.5445 19.8938 20.5754 17.9246C18.6062 15.9555 17.5 13.2848 17.5 10.5C17.5 7.71523 18.6062 5.04451 20.5754 3.07538C22.5445 1.10625 25.2152 0 28 0ZM54.25 10.5C54.7141 10.5 55.1592 10.6844 55.4874 11.0126C55.8156 11.3408 56 11.7859 56 12.25C56 12.7141 55.8156 13.1592 55.4874 13.4874C55.1592 13.8156 54.7141 14 54.25 14C53.7859 14 53.3408 13.8156 53.0126 13.4874C52.6844 13.1592 52.5 12.7141 52.5 12.25C52.5 11.7859 52.6844 11.3408 53.0126 11.0126C53.3408 10.6844 53.7859 10.5 54.25 10.5Z" fill="#00B5E2"/>
</g>
<defs>
<clipPath id="clip0_139_622">
<rect width="70" height="70" fill="white"/>
</clipPath>
</defs>
</svg>
