<svg width="51" height="51" viewBox="0 0 51 51" fill="none" xmlns="http://www.w3.org/2000/svg">
<path d="M44.4699 21.2287C30.4236 19.2992 18.3111 29.7287 19.125 43.5625M13.8125 17C13.8125 18.1272 14.2603 19.2082 15.0573 20.0052C15.8543 20.8022 16.9353 21.25 18.0625 21.25C19.1897 21.25 20.2707 20.8022 21.0677 20.0052C21.8647 19.2082 22.3125 18.1272 22.3125 17C22.3125 15.8728 21.8647 14.7918 21.0677 13.9948C20.2707 13.1978 19.1897 12.75 18.0625 12.75C16.9353 12.75 15.8543 13.1978 15.0573 13.9948C14.2603 14.7918 13.8125 15.8728 13.8125 17Z" stroke="#F6F6F6" stroke-width="1.5" stroke-linecap="round" stroke-linejoin="round"/>
<path d="M6.375 27.7653C12.2825 26.9472 17.5844 29.8011 20.451 34.3528" stroke="#F6F6F6" stroke-width="1.5" stroke-linecap="round" stroke-linejoin="round"/>
<path d="M6.375 19.975C6.375 15.215 6.375 12.835 7.3015 11.016C8.11641 9.41669 9.41669 8.11641 11.016 7.3015C12.835 6.375 15.215 6.375 19.975 6.375H31.025C35.785 6.375 38.165 6.375 39.984 7.3015C41.5833 8.11641 42.8836 9.41669 43.6985 11.016C44.625 12.835 44.625 15.215 44.625 19.975V31.025C44.625 35.785 44.625 38.165 43.6985 39.984C42.8836 41.5833 41.5833 42.8836 39.984 43.6985C38.165 44.625 35.785 44.625 31.025 44.625H19.975C15.215 44.625 12.835 44.625 11.016 43.6985C9.41669 42.8836 8.11641 41.5833 7.3015 39.984C6.375 38.165 6.375 35.785 6.375 31.025V19.975Z" stroke="#F6F6F6" stroke-width="1.5" stroke-linecap="round" stroke-linejoin="round"/>
</svg>
